<svg xmlns="http://www.w3.org/2000/svg" xmlns:xlink="http://www.w3.org/1999/xlink" width="500" zoomAndPan="magnify" viewBox="0 0 375 374.999991" height="500" preserveAspectRatio="xMidYMid meet" version="1.0"><defs><clipPath id="171707c0d9"><path d="M 64.390625 64.390625 L 310.609375 64.390625 L 310.609375 310.609375 L 64.390625 310.609375 Z M 64.390625 64.390625 " clip-rule="nonzero"/></clipPath><clipPath id="97a39d1c63"><path d="M 187.5 64.390625 C 119.507812 64.390625 64.390625 119.507812 64.390625 187.5 C 64.390625 255.492188 119.507812 310.609375 187.5 310.609375 C 255.492188 310.609375 310.609375 255.492188 310.609375 187.5 C 310.609375 119.507812 255.492188 64.390625 187.5 64.390625 Z M 187.5 64.390625 " clip-rule="nonzero"/></clipPath><clipPath id="ed4a7a82b3"><path d="M 91 137.5 L 283.695312 137.5 L 283.695312 291 L 91 291 Z M 91 137.5 " clip-rule="nonzero"/></clipPath></defs><rect x="-37.5" width="450" fill="#ffffff" y="-37.499999" height="449.999989" fill-opacity="1"/><rect x="-37.5" width="450" fill="#ffffff" y="-37.499999" height="449.999989" fill-opacity="1"/><g clip-path="url(#171707c0d9)"><g clip-path="url(#97a39d1c63)"><path fill="#2ecc71" d="M 64.390625 64.390625 L 310.609375 64.390625 L 310.609375 310.609375 L 64.390625 310.609375 Z M 64.390625 64.390625 " fill-opacity="1" fill-rule="nonzero"/></g></g><g clip-path="url(#ed4a7a82b3)"><path fill="#ffffff" d="M 283.023438 208.039062 L 280.765625 201.683594 C 279.535156 198.199219 275.640625 195.328125 272.15625 195.328125 L 264.164062 195.328125 C 258.21875 178.722656 251.042969 158.632812 248.789062 153.917969 C 245.507812 146.539062 235.054688 143.261719 229.3125 141.621094 C 229.3125 141.621094 219.679688 137.929688 187.496094 137.929688 C 155.3125 137.929688 145.882812 141.621094 145.882812 141.621094 C 139.117188 143.875 129.6875 147.15625 126 154.125 C 124.152344 157.609375 116.773438 178.109375 110.828125 195.328125 L 103.039062 195.328125 C 99.554688 195.328125 95.660156 198.199219 94.429688 201.683594 L 92.175781 208.039062 C 90.945312 211.523438 92.789062 214.390625 96.273438 214.390625 L 104.269531 214.390625 C 103.246094 217.261719 102.628906 218.902344 102.628906 218.902344 C 102.015625 219.925781 101.605469 224.640625 101.605469 226.078125 L 101.605469 284.089844 C 101.605469 287.777344 104.679688 290.855469 108.371094 290.855469 L 132.96875 290.855469 C 136.65625 290.855469 139.734375 287.777344 139.734375 284.089844 L 139.734375 271.789062 L 235.464844 271.789062 L 235.464844 284.089844 C 235.464844 287.777344 238.539062 290.855469 242.226562 290.855469 L 267.03125 290.855469 C 270.722656 290.855469 273.796875 287.777344 273.796875 284.089844 L 273.796875 226.078125 C 273.796875 224.847656 273.386719 219.925781 272.773438 218.902344 C 272.773438 218.902344 272.15625 217.261719 271.132812 214.390625 L 278.921875 214.390625 C 282.203125 214.390625 284.046875 211.523438 283.023438 208.039062 Z M 139.734375 243.707031 L 131.535156 238.171875 C 116.363281 236.941406 114.519531 242.269531 111.238281 236.53125 L 111.238281 229.5625 C 111.238281 222.796875 115.132812 222.59375 119.4375 222.59375 C 123.539062 222.59375 131.738281 226.078125 137.273438 228.535156 C 143.21875 231.203125 147.523438 228.945312 149.777344 237.761719 C 149.574219 241.859375 147.316406 243.707031 139.734375 243.707031 Z M 125.382812 197.992188 C 130.507812 177.082031 139.117188 162.53125 140.347656 159.042969 C 141.167969 156.585938 139.117188 152.074219 187.699219 152.074219 C 236.285156 152.074219 233.617188 158.632812 233.824219 158.839844 C 236.078125 163.554688 245.097656 178.929688 249.8125 197.992188 C 249.8125 197.992188 231.570312 200.453125 189.957031 200.453125 C 148.34375 200.453125 125.382812 197.992188 125.382812 197.992188 Z M 225.625 237.761719 C 235.257812 225.871094 232.183594 231.203125 238.128906 228.535156 C 243.457031 226.078125 251.863281 222.59375 255.960938 222.59375 C 260.269531 222.59375 264.164062 222.796875 264.164062 229.5625 L 264.164062 236.53125 C 261.085938 242.066406 258.421875 237.144531 243.046875 238.582031 L 235.464844 243.5 C 227.878906 243.707031 222.960938 240.835938 225.625 237.761719 Z M 225.625 237.761719 " fill-opacity="1" fill-rule="nonzero"/></g></svg>