<svg xmlns="http://www.w3.org/2000/svg" width="96" height="96" viewBox="0 0 96 96">
    <g fill="none" fill-rule="evenodd">
        <g fill="#00008F" fill-rule="nonzero">
            <g>
                <g>
                    <g>
                        <path d="M18 57.14c-1.714-.016-3.27 1.004-3.936 2.583-.668 1.58-.316 3.406.89 4.624 1.207 1.218 3.03 1.587 4.615.935 1.586-.653 2.62-2.198 2.621-3.912.005-1.117-.433-2.19-1.219-2.983-.786-.793-1.854-1.242-2.971-1.247zm0 6.47c-.905.016-1.73-.517-2.089-1.349-.357-.831-.177-1.797.458-2.443.634-.646 1.597-.844 2.435-.502.838.343 1.386 1.158 1.386 2.064.005.586-.222 1.15-.633 1.569-.41.418-.97.656-1.557.661zM65.77 57.14c-2.335 0-4.228 1.892-4.23 4.227-.002 2.335 1.888 4.23 4.223 4.233 2.335.004 4.231-1.885 4.237-4.22.008-1.125-.435-2.207-1.23-3.003-.794-.797-1.875-1.242-3-1.237zm0 6.47c-1.232 0-2.23-.998-2.23-2.23s.998-2.23 2.23-2.23 2.23.998 2.23 2.23c.005.593-.228 1.163-.647 1.583-.42.42-.99.652-1.583.647z" transform="translate(-464.000000, -703.000000) translate(0.000000, 483.000000) translate(464.000000, 220.000000) translate(4.000000, 13.000000)"/>
                        <path d="M85.88 55.34V42c.01-.083.01-.167 0-.25l-7.71-30.21c-.577-2.34-2.67-3.988-5.08-4H57.27c-1.405.005-2.75.57-3.738 1.567-.989.998-1.54 2.348-1.532 3.753v32.42h-2.7L22.52 3c-1.138-1.865-3.165-3.002-5.35-3h-3.43c-.12.002-.238.026-.35.07h-.07c-.103.047-.198.111-.28.19-.044.043-.084.09-.12.14-.019.036-.036.072-.05.11v.07c-.043.108-.067.223-.07.34V28c0 .552.448 1 1 1 1.83 0 3.315 1.484 3.315 3.315 0 1.83-1.484 3.315-3.315 3.315-1.165-.007-2.237-.636-2.81-1.65-.179-.31-.51-.503-.868-.503-.359-.001-.69.19-.87.5-.18.31-.18.692-.002 1.003 1.236 2.083 3.732 3.055 6.05 2.357 2.32-.697 3.864-2.885 3.746-5.304-.119-2.419-1.87-4.445-4.246-4.913V5.49l18.6 39.79H6.31c-1.117.005-2.185.454-2.971 1.247-.786.793-1.224 1.866-1.219 2.983v5.82c-1.506.76-2.307 2.444-1.946 4.093.36 1.648 1.79 2.844 3.476 2.907h4.89c.45 4.878 4.541 8.61 9.44 8.61 4.899 0 8.99-3.732 9.44-8.61h28.9c.45 4.878 4.541 8.61 9.44 8.61 4.899 0 8.99-3.732 9.44-8.61h9.14c1.686-.063 3.116-1.259 3.476-2.907.36-1.649-.44-3.332-1.946-4.093l.01.01zm-2-5.74h-2.19c-1.234 0-2.235-1-2.235-2.235 0-1.234 1-2.235 2.235-2.235h2.19v4.47zm-2.2-16.17H62.52v-13c-.008-.87.33-1.707.94-2.328.609-.62 1.44-.974 2.31-.982h11.75l4.16 16.31zM54 12.86c-.008-.87.33-1.707.94-2.328.609-.62 1.44-.974 2.31-.982h15.84c1.486.004 2.78 1.011 3.15 2.45l.76 3.09H65.77c-2.914.022-5.261 2.396-5.25 5.31v14c0 .552.448 1 1 1h20.66l1.7 6.67v1h-2.19c-2.339 0-4.235 1.896-4.235 4.235 0 2.339 1.896 4.235 4.235 4.235h2.19V55h-11c-1.78-2.053-4.363-3.232-7.08-3.232-2.717 0-5.3 1.179-7.08 3.232H54V12.86zm2.3 47.52H27.43c-.122-1.182-.46-2.331-1-3.39h30.9c-.543 1.058-.885 2.207-1.01 3.39h-.02zM15.31 2h1.86c1.493.001 2.877.782 3.65 2.06L47 45.28H35.61L15.31 2zm-9 45.28H52V55H25c-1.78-2.053-4.363-3.232-7.08-3.232-2.717 0-5.3 1.179-7.08 3.232H4.12v-5.48c-.008-.588.219-1.155.63-1.575.41-.42.972-.66 1.56-.665zM2 58.68c0-.916.734-1.664 1.65-1.68h5.9c-.54 1.059-.878 2.208-1 3.39h-4.9c-.446-.008-.87-.192-1.18-.513-.309-.32-.478-.751-.47-1.197zM18 69c-3.1.057-5.925-1.767-7.15-4.614-1.224-2.848-.604-6.153 1.569-8.363 2.172-2.21 5.467-2.887 8.335-1.712 2.868 1.176 4.74 3.97 4.736 7.069.028 4.17-3.32 7.576-7.49 7.62zm47.78 0c-3.1.057-5.925-1.767-7.15-4.614-1.224-2.848-.604-6.153 1.569-8.363 2.172-2.21 5.467-2.887 8.335-1.712 2.868 1.176 4.74 3.97 4.736 7.069.028 4.173-3.327 7.582-7.5 7.62h.01zm18.58-8.62h-9.15c-.122-1.182-.46-2.331-1-3.39h10.14c.886.068 1.57.807 1.57 1.695s-.684 1.627-1.57 1.695h.01z" transform="translate(-464.000000, -703.000000) translate(0.000000, 483.000000) translate(464.000000, 220.000000) translate(4.000000, 13.000000)"/>
                        <path d="M61.52 40.81h2.12c.552 0 1-.448 1-1s-.448-1-1-1h-2.12c-.552 0-1 .448-1 1s.448 1 1 1z" transform="translate(-464.000000, -703.000000) translate(0.000000, 483.000000) translate(464.000000, 220.000000) translate(4.000000, 13.000000)"/>
                    </g>
                </g>
            </g>
        </g>
    </g>
</svg>
